<?xml version="1.0" encoding="utf-8"?>
<!-- Generator: Adobe Illustrator 18.0.0, SVG Export Plug-In . SVG Version: 6.00 Build 0)  -->
<!DOCTYPE svg PUBLIC "-//W3C//DTD SVG 1.1//EN" "http://www.w3.org/Graphics/SVG/1.1/DTD/svg11.dtd">
<svg version="1.1" id="Layer_1" xmlns="http://www.w3.org/2000/svg" xmlns:xlink="http://www.w3.org/1999/xlink" x="0px" y="0px"
	 width="56.7px" height="56.7px" viewBox="0 0 56.7 56.7" enable-background="new 0 0 56.7 56.7" xml:space="preserve">
<path d="M45.6,11.8C41,7.2,34.8,4.7,28.3,4.7c-6.5,0-12.6,2.5-17.2,7.1c-9.5,9.5-9.5,24.9,0,34.4c4.6,4.6,10.7,7.1,17.2,7.1
	c0,0,0,0,0,0c6.5,0,12.6-2.5,17.2-7.1C55.1,36.8,55.1,21.3,45.6,11.8z M38.6,38.6c-0.2,0.2-0.4,0.3-0.7,0.3c-0.3,0-0.5-0.1-0.7-0.3
	l-8.8-8.8l-8.8,8.8c-0.2,0.2-0.4,0.3-0.7,0.3c-0.3,0-0.5-0.1-0.7-0.3c-0.4-0.4-0.4-1,0-1.4l8.8-8.8l-8.8-8.8c-0.4-0.4-0.4-1,0-1.4
	c0.4-0.4,1-0.4,1.4,0l8.8,8.8l8.8-8.8c0.4-0.4,1-0.4,1.4,0c0.4,0.4,0.4,1,0,1.4l-8.8,8.8l8.8,8.8C39,37.6,39,38.2,38.6,38.6z"/>
</svg>
