<?xml version="1.0" encoding="utf-8"?>
<!-- Generator: Adobe Illustrator 17.0.2, SVG Export Plug-In . SVG Version: 6.00 Build 0)  -->
<!DOCTYPE svg PUBLIC "-//W3C//DTD SVG 1.1//EN" "http://www.w3.org/Graphics/SVG/1.1/DTD/svg11.dtd">
<svg version="1.1" id="Layer_1" xmlns="http://www.w3.org/2000/svg" xmlns:xlink="http://www.w3.org/1999/xlink" x="0px" y="0px"
	 width="56.693px" height="56.693px" viewBox="0 0 56.693 56.693" enable-background="new 0 0 56.693 56.693" xml:space="preserve">
<g>
	<path d="M40.884,28.162H29.38V11.381c0-0.547-0.443-0.99-0.99-0.99c-0.547,0-0.99,0.443-0.99,0.99v17.771
		c0,0.547,0.443,0.99,0.99,0.99h12.494c0.547,0,0.99-0.443,0.99-0.99C41.874,28.605,41.431,28.162,40.884,28.162z"/>
	<path d="M28.39,4.54c-13.572,0-24.613,11.041-24.613,24.612S14.818,53.764,28.39,53.764s24.613-11.041,24.613-24.612
		S41.962,4.54,28.39,4.54z M28.39,51.784c-12.479,0-22.633-10.153-22.633-22.632C5.758,16.672,15.911,6.52,28.39,6.52
		s22.633,10.153,22.633,22.632C51.023,41.631,40.87,51.784,28.39,51.784z"/>
</g>
</svg>
