<?xml version="1.0" encoding="utf-8"?>
<!-- Generator: Adobe Illustrator 18.0.0, SVG Export Plug-In . SVG Version: 6.00 Build 0)  -->
<!DOCTYPE svg PUBLIC "-//W3C//DTD SVG 1.1//EN" "http://www.w3.org/Graphics/SVG/1.1/DTD/svg11.dtd">
<svg version="1.1" id="Layer_1" xmlns="http://www.w3.org/2000/svg" xmlns:xlink="http://www.w3.org/1999/xlink" x="0px" y="0px"
	 width="56.7px" height="56.7px" viewBox="0 0 56.7 56.7" enable-background="new 0 0 56.7 56.7" xml:space="preserve">
<g>
	<path fill="#1D1D1B" d="M25.1,33.9c-2-2-1.4-1.4-3.3-3.5c-0.5-0.6-1.2-0.4-1.6-0.1c-0.1,0-0.1,0.1-0.2,0.1
		c-1.6,1.3-6.2,5.8-7.6,7.3c-0.7-0.6-3-2.9-3.7-3.6c-0.3-0.3-0.6-0.4-0.8-0.4c-0.7-0.4-1.8,0-1.8,1.1c0.2,4.9,0.1,9.8,0,14.7
		c0,1,1,1.4,1.7,1.1c4.4-0.4,8.8-0.8,13.2-1.3c0.7-0.1,1.1-0.6,1.2-1.1c0.2-0.4,0.2-1-0.2-1.4C20.9,45.9,19,44,18.2,43
		c1.2-1.3,5.6-5.6,7-6.6c0.7-0.5,0.6-1.4,0.2-2C25.3,34.2,25.2,34,25.1,33.9z"/>
</g>
<g>
	<path fill="#1D1D1B" d="M31.6,22.8c2,2,1.4,1.4,3.3,3.5c0.5,0.6,1.2,0.4,1.6,0.1c0.1,0,0.1-0.1,0.2-0.1c1.6-1.3,6.2-5.8,7.6-7.3
		c0.7,0.6,3,2.9,3.7,3.6c0.3,0.3,0.6,0.4,0.8,0.4c0.7,0.4,1.8,0,1.8-1.1c-0.2-4.9-0.1-9.8,0-14.7c0-1-1-1.4-1.7-1.1
		c-4.4,0.4-8.8,0.8-13.2,1.3c-0.7,0.1-1.1,0.6-1.2,1.1c-0.2,0.4-0.2,1,0.2,1.4c0.9,0.9,2.8,2.8,3.7,3.8c-1.2,1.3-5.6,5.6-7,6.6
		c-0.7,0.5-0.6,1.4-0.2,2C31.4,22.4,31.5,22.6,31.6,22.8z"/>
</g>
</svg>
