<?xml version="1.0" encoding="utf-8"?>
<!-- Generator: Adobe Illustrator 17.0.2, SVG Export Plug-In . SVG Version: 6.00 Build 0)  -->
<!DOCTYPE svg PUBLIC "-//W3C//DTD SVG 1.1//EN" "http://www.w3.org/Graphics/SVG/1.1/DTD/svg11.dtd">
<svg version="1.1" id="Layer_1" xmlns="http://www.w3.org/2000/svg" xmlns:xlink="http://www.w3.org/1999/xlink" x="0px" y="0px"
	 width="56.693px" height="56.693px" viewBox="0 0 56.693 56.693" enable-background="new 0 0 56.693 56.693" xml:space="preserve">
<g>
	<path d="M47.364,4.431H9.616c-3.273,0-5.937,2.663-5.937,5.937v37.834c0,3.274,2.664,5.938,5.937,5.938h37.749
		c3.273,0,5.937-2.664,5.937-5.938V10.367C53.301,7.094,50.638,4.431,47.364,4.431z M51.301,48.201c0,2.171-1.766,3.938-3.937,3.938
		H9.616c-2.171,0-3.937-1.767-3.937-3.938V18.853h45.623V48.201z M51.301,16.853H5.679v-6.485c0-2.17,1.766-3.937,3.937-3.937
		h37.749c2.171,0,3.937,1.766,3.937,3.937V16.853z"/>
	<path d="M23.483,45.514c3.632,0,6.538-2.403,6.538-5.895v-0.056c0-3.576-3.045-5.225-6.454-5.505l5.756-6.398
		c0.307-0.335,0.531-0.643,0.531-1.09c0-0.559-0.447-0.95-1.062-0.95H18.118c-0.559,0-1.034,0.447-1.034,1.006
		c0,0.559,0.475,0.978,1.034,0.978h8.661l-5.7,6.454c-0.307,0.308-0.447,0.587-0.447,0.866c0,0.531,0.447,0.95,0.978,0.95h0.699
		c3.213,0,5.476,1.341,5.476,3.772v0.056c0,2.291-1.9,3.8-4.275,3.8c-2.207,0-3.884-0.866-5.309-2.487
		c-0.168-0.168-0.447-0.335-0.81-0.335c-0.587,0-1.09,0.503-1.09,1.09c0,0.307,0.196,0.615,0.363,0.782
		C18.23,44.313,20.493,45.514,23.483,45.514z"/>
	<path d="M33.712,28.666c0.14,0,0.307-0.028,0.475-0.084l2.738-0.894v16.513c0,0.615,0.503,1.117,1.09,1.117
		c0.615,0,1.09-0.503,1.09-1.117V26.487c0-0.586-0.447-1.09-1.09-1.09h-0.056c-0.363,0-0.754,0.112-1.201,0.251l-3.213,1.118
		c-0.475,0.168-0.782,0.475-0.782,0.95C32.762,28.247,33.209,28.666,33.712,28.666z"/>
	<path d="M18.269,9.331c-1.402,0-2.536,1.136-2.536,2.536c0,1.4,1.133,2.534,2.536,2.534c1.402,0,2.536-1.134,2.536-2.534
		C20.805,10.467,19.671,9.331,18.269,9.331z M18.27,12.401c-0.296,0-0.536-0.24-0.536-0.534c0-0.295,0.24-0.535,0.536-0.536
		c0.295,0,0.536,0.241,0.536,0.536C18.805,12.161,18.564,12.401,18.27,12.401z"/>
	<path d="M38.812,9.331c-1.402,0-2.536,1.136-2.536,2.536c0,1.4,1.133,2.534,2.536,2.534c1.402,0,2.536-1.134,2.536-2.534
		C41.347,10.467,40.214,9.331,38.812,9.331z M38.813,12.401c-0.296,0-0.536-0.24-0.536-0.534c0-0.295,0.24-0.535,0.536-0.536
		c0.295,0,0.536,0.241,0.536,0.536C39.347,12.161,39.107,12.401,38.813,12.401z"/>
</g>
</svg>
