<?xml version="1.0" encoding="utf-8"?>
<!-- Generator: Adobe Illustrator 18.0.0, SVG Export Plug-In . SVG Version: 6.00 Build 0)  -->
<!DOCTYPE svg PUBLIC "-//W3C//DTD SVG 1.1//EN" "http://www.w3.org/Graphics/SVG/1.1/DTD/svg11.dtd">
<svg version="1.1" id="Layer_1" xmlns="http://www.w3.org/2000/svg" xmlns:xlink="http://www.w3.org/1999/xlink" x="0px" y="0px"
	 width="56.7px" height="56.7px" viewBox="0 0 56.7 56.7" enable-background="new 0 0 56.7 56.7" xml:space="preserve">
<g>
	<path d="M27.6,48.4c-0.5-0.1-7.5-2-8.1-2.2c-0.5-0.1-1.1,0.2-1.2,0.7c-0.7,2.6,1,5.4,3.7,6.1c2.8,0.7,5.6-0.8,6.3-3.4
		C28.5,49.1,28.2,48.6,27.6,48.4z"/>
	<path d="M40.3,38.7L43.7,26c1.4-5.2-0.7-10.7-5.3-14l0.1-0.3c0.7-2.6-1-5.4-3.7-6.1c-2.8-0.7-5.6,0.8-6.3,3.4l-0.1,0.3
		c-5.6,0.5-10.2,4.3-11.6,9.5l-3.4,12.7c-3.3-0.2-5.9,1.1-6.5,3.4l-1,3.5c-0.2,0.8,0.3,1.6,1.1,1.8l34.5,9.2
		c0.8,0.2,1.6-0.3,1.8-1.1l1-3.5C44.9,42.6,43.3,40.2,40.3,38.7z"/>
</g>
</svg>
