<?xml version="1.0" encoding="utf-8"?>
<!-- Generator: Adobe Illustrator 18.0.0, SVG Export Plug-In . SVG Version: 6.00 Build 0)  -->
<!DOCTYPE svg PUBLIC "-//W3C//DTD SVG 1.1//EN" "http://www.w3.org/Graphics/SVG/1.1/DTD/svg11.dtd">
<svg version="1.1" id="Layer_1" xmlns="http://www.w3.org/2000/svg" xmlns:xlink="http://www.w3.org/1999/xlink" x="0px" y="0px"
	 width="56.7px" height="56.7px" viewBox="0 0 56.7 56.7" enable-background="new 0 0 56.7 56.7" xml:space="preserve">
<path d="M45.6,11.1C41,6.6,34.8,4.1,28.3,4.1s-12.6,2.5-17.2,7.1c-9.5,9.5-9.5,24.9,0,34.4c4.6,4.6,10.7,7.1,17.2,7.1
	s12.6-2.5,17.2-7.1C55.1,36.1,55.1,20.6,45.6,11.1z M44.5,44.6c-4.3,4.4-10.1,6.7-16.2,6.7c-6.1,0-11.9-2.4-16.2-6.7
	c-9-9-9-23.6,0-32.6c4.3-4.4,10.1-6.7,16.2-6.7c6.1,0,12,2.4,16.3,6.7C53.6,21.1,53.6,35.7,44.5,44.6z"/>
<g>
	<defs>
		<rect id="SVGID_1_" x="-571.8" y="-1067.8" width="1200" height="2191"/>
	</defs>
	<clipPath id="SVGID_2_">
		<use xlink:href="#SVGID_1_"  overflow="visible"/>
	</clipPath>
</g>
<circle cx="18.4" cy="28.4" r="2"/>
<circle cx="28.4" cy="28.4" r="2"/>
<circle cx="38.4" cy="28.4" r="2"/>
</svg>
