<?xml version="1.0" encoding="utf-8"?>
<!-- Generator: Adobe Illustrator 17.0.2, SVG Export Plug-In . SVG Version: 6.00 Build 0)  -->
<!DOCTYPE svg PUBLIC "-//W3C//DTD SVG 1.1//EN" "http://www.w3.org/Graphics/SVG/1.1/DTD/svg11.dtd">
<svg version="1.1" id="Layer_1" xmlns="http://www.w3.org/2000/svg" xmlns:xlink="http://www.w3.org/1999/xlink" x="0px" y="0px"
	 width="56.693px" height="56.693px" viewBox="0 0 56.693 56.693" enable-background="new 0 0 56.693 56.693" xml:space="preserve">
<path d="M36.198,4.862H20.505C11.404,4.862,4,12.916,4,22.815c0,8.409,5.326,15.625,12.778,17.488v11.335
	c0,0.393,0.23,0.75,0.588,0.911c0.132,0.06,0.272,0.089,0.412,0.089c0.239,0,0.475-0.085,0.661-0.25l13.193-11.621h4.565
	c9.101,0,16.505-8.054,16.505-17.953S45.299,4.862,36.198,4.862z M36.198,38.768h-4.943c-0.243,0-0.479,0.089-0.661,0.25
	L18.778,49.425v-9.924c0-0.479-0.339-0.891-0.81-0.982C11.034,37.174,6,30.569,6,22.815c0-8.796,6.507-15.953,14.505-15.953h15.692
	c7.998,0,14.505,7.156,14.505,15.953S44.196,38.768,36.198,38.768z"/>
</svg>
